Coordinates
version=1
nRows=11
nColumns=46
inDegrees=yes

Units are S.I. units (second, meters, Newtons, ...)
Angles are in degrees.

endheader
time	pelvis_tilt	pelvis_list	pelvis_rotation	pelvis_tx	pelvis_ty	pelvis_tz	bb_angle	bb_tx	bb_ty	bb_tz	hip_flexion_r	hip_adduction_r	hip_rotation_r	knee_angle_r	knee_angle_r_beta	ankle_angle_r	subtalar_angle_r	mtp_angle_r	crank_angle_r	hip_flexion_l	hip_adduction_l	hip_rotation_l	knee_angle_l	knee_angle_l_beta	ankle_angle_l	subtalar_angle_l	mtp_angle_l	crank_angle_l	lumbar_extension	lumbar_bending	lumbar_rotation	arm_flex_r	arm_add_r	arm_rot_r	elbow_flex_r	pro_sup_r	wrist_flex_r	wrist_dev_r	arm_flex_l	arm_add_l	arm_rot_l	elbow_flex_l	pro_sup_l	wrist_flex_l	wrist_dev_l
      7.50000000	    -15.08052395	      3.05185236	      2.75706978	      0.11842486	      1.13404417	     -0.28678674	      0.00000000	      0.50000000	      0.00000000	      0.25000000	     53.89413174	    -12.02144325	     -1.91327134	     74.21183889	      1.29524093	     -3.11066068	     -5.77823058	      0.00000000	      0.00000000	     77.14467842	      0.93662891	      2.76095246	     78.41470352	      1.36859476	     13.55689840	     -8.88637089	      0.00000000	      0.00000000	    -60.28245025	      0.16668780	     -3.15424431	     73.45880200	    -18.81428209	     23.11273315	     75.94383679	     47.67986434	      0.00000000	      0.00000000	     80.10237547	    -26.11585598	     34.23707779	     67.58390024	     51.63625413	      0.00000000	      0.00000000
      7.50500000	    -14.72028069	      2.48598836	      2.73651430	      0.11851168	      1.13253494	     -0.28683691	      0.00000000	      0.50000000	      0.00000000	      0.25000000	     54.77262008	    -11.58649360	     -1.78231754	     76.86771119	      1.34159465	     -2.94264901	     -5.95647912	      0.00000000	      0.00000000	     75.55515473	      0.73564113	      3.22477979	     76.29969988	      1.33168098	     13.67154643	     -8.86091278	      0.00000000	      0.00000000	    -60.34149781	      0.62190937	     -2.56684426	     73.27975497	    -18.73002770	     23.22968029	     75.92301297	     47.68938572	      0.00000000	      0.00000000	     79.90911516	    -26.16981090	     34.22244081	     67.51139633	     51.62597145	      0.00000000	      0.00000000
      7.51000000	    -14.08770390	      2.66228958	      2.74336979	      0.11910106	      1.13189526	     -0.28688122	      0.00000000	      0.50000000	      0.00000000	      0.25000000	     55.39627245	    -11.82689615	     -1.27268030	     79.51087051	      1.38772648	     -2.38979909	     -5.91379205	      0.00000000	      0.00000000	     73.44287030	      0.78822235	      2.90993952	     74.01216453	      1.29175596	     13.83687678	     -8.82615572	      0.00000000	      0.00000000	    -60.69920972	      0.54232165	     -2.64267771	     73.06811713	    -18.92258961	     23.46518446	     75.83579180	     47.69966662	      0.00000000	      0.00000000	     79.72030011	    -25.85250512	     34.14518619	     67.26443828	     51.57802961	      0.00000000	      0.00000000
      7.51500000	    -13.85473888	      2.05980317	      2.76943051	      0.11967982	      1.13010052	     -0.28694651	      0.00000000	      0.50000000	      0.00000000	      0.25000000	     56.29218042	    -11.43976836	     -1.34672895	     81.98646048	      1.43093368	     -2.10302352	     -6.06797822	      0.00000000	      0.00000000	     72.05059355	      0.48749672	      3.36318988	     72.10008784	      1.25838392	     13.70718335	     -8.61793689	      0.00000000	      0.00000000	    -60.61782343	      0.99653424	     -2.10875945	     72.87322297	    -18.79414093	     23.59032617	     75.80935235	     47.70917823	      0.00000000	      0.00000000	     79.59745904	    -25.92256300	     34.11870594	     67.21347274	     51.56913114	      0.00000000	      0.00000000
      7.52000000	    -13.35269586	      2.15120433	      2.72805873	      0.12020452	      1.12913112	     -0.28703528	      0.00000000	      0.50000000	      0.00000000	      0.25000000	     57.02724016	    -11.56498469	     -0.90401247	     84.49745633	      1.47475882	     -1.25045771	     -5.99856989	      0.00000000	      0.00000000	     70.15088304	      0.40229201	      3.11864649	     69.96158981	      1.22106009	     13.58329065	     -8.14316454	      0.00000000	      0.00000000	    -60.83979357	      0.95971783	     -2.14574999	     72.77809988	    -18.89842510	     23.80319840	     75.66806136	     47.70643237	      0.00000000	      0.00000000	     79.30602643	    -25.62941611	     34.07740940	     66.94563301	     51.52395899	      0.00000000	      0.00000000
      7.52500000	    -12.97193151	      2.00958472	      2.90082587	      0.12036834	      1.12769757	     -0.28743840	      0.00000000	      0.50000000	      0.00000000	      0.25000000	     57.84073807	    -11.70017294	     -0.76536167	     86.93502724	      1.51730246	     -0.48037604	     -5.79272232	      0.00000000	      0.00000000	     68.49802349	      0.43700243	      3.23962512	     67.90855870	      1.18522794	     13.11207436	     -7.69225257	      0.00000000	      0.00000000	    -60.93272973	      1.22376682	     -2.12060324	     72.79239699	    -18.86839698	     23.99218309	     75.48562094	     47.69202309	      0.00000000	      0.00000000	     79.29539209	    -25.43064804	     33.97092974	     66.56653509	     51.45094999	      0.00000000	      0.00000000
      7.53000000	    -12.48331753	      1.78525149	      2.90897879	      0.12052369	      1.12682294	     -0.28693546	      0.00000000	      0.50000000	      0.00000000	      0.25000000	     58.48791812	    -11.52570944	     -0.66301120	     89.22475393	      1.55726573	      0.27154157	     -5.97539147	      0.00000000	      0.00000000	     66.71440530	      0.10028744	      3.21782783	     65.86145510	      1.14949924	     12.68433827	     -7.02322115	      0.00000000	      0.00000000	    -61.18815536	      1.34483674	     -1.93597899	     72.90453280	    -18.74041768	     24.02679974	     75.24949436	     47.64694092	      0.00000000	      0.00000000	     79.30145556	    -25.29524308	     33.91130599	     66.30186820	     51.38766797	      0.00000000	      0.00000000
      7.53500000	    -12.03865000	      1.64544400	      3.01207711	      0.12052285	      1.12605188	     -0.28655212	      0.00000000	      0.50000000	      0.00000000	      0.25000000	     59.20282185	    -11.49758862	     -0.55680690	     91.44812494	      1.59607087	      1.00514843	     -6.10513595	      0.00000000	      0.00000000	     64.92745359	     -0.10459346	      3.20076602	     63.73530077	      1.11239085	     12.14749587	     -6.16802330	      0.00000000	      0.00000000	    -61.41380738	      1.48537676	     -1.92330980	     73.06856544	    -18.54143829	     23.99511619	     74.87150258	     47.56998399	      0.00000000	      0.00000000	     79.42656748	    -25.17084871	     33.93424238	     65.85729870	     51.30179541	      0.00000000	      0.00000000
      7.54000000	    -11.88056473	      1.18007093	      3.13086441	      0.12036186	      1.12492066	     -0.28669015	      0.00000000	      0.50000000	      0.00000000	      0.25000000	     60.17308140	    -11.29669517	     -0.74130408	     93.56118673	      1.63295076	      1.72659536	     -6.41397806	      0.00000000	      0.00000000	     63.54819777	     -0.42652439	      3.48289372	     61.73045412	      1.07739967	     11.34842884	     -5.45605668	      0.00000000	      0.00000000	    -61.35063253	      1.91581416	     -1.57969372	     73.26679451	    -18.43074405	     23.93823519	     74.73674627	     47.53360077	      0.00000000	      0.00000000	     79.31652780	    -25.14829114	     33.91911769	     65.71131472	     51.26542704	      0.00000000	      0.00000000
      7.54500000	    -11.58458829	      1.18690094	      3.26722319	      0.12048956	      1.12448805	     -0.28673868	      0.00000000	      0.50000000	      0.00000000	      0.25000000	     61.04845561	    -11.48684055	     -0.57737042	     95.64337845	      1.66929186	      2.57232839	     -6.38958145	      0.00000000	      0.00000000	     61.73906498	     -0.42538560	      3.45332026	     59.43096606	      1.03726604	     10.58560575	     -4.83200020	      0.00000000	      0.00000000	    -61.49526086	      2.00075274	     -1.68838394	     73.52338531	    -18.24916114	     23.82775788	     74.21716473	     47.42816153	      0.00000000	      0.00000000	     79.44044643	    -24.91323465	     33.89860071	     65.15500539	     51.16407150	      0.00000000	      0.00000000
      7.55000000	    -11.56179688	      0.81883977	      3.29691286	      0.12044596	      1.12357336	     -0.28679023	      0.00000000	      0.50000000	      0.00000000	      0.25000000	     62.17861503	    -11.27285417	     -0.64276981	     97.60729694	      1.70356871	      3.44202738	     -6.67993059	      0.00000000	      0.00000000	     60.35571248	     -0.77985765	      3.60208829	     57.30102663	      1.00009158	      9.81515228	     -4.16132624	      0.00000000	      0.00000000	    -61.36319334	      2.30907793	     -1.37643743	     73.72663047	    -18.18758256	     23.74538336	     74.04790675	     47.38547296	      0.00000000	      0.00000000	     79.29067713	    -24.88871297	     33.86111659	     64.97957175	     51.12470468	      0.00000000	      0.00000000
